<?xml version="1.0" encoding="UTF-8"?><svg id="Layer_2" xmlns="http://www.w3.org/2000/svg" viewBox="0 0 732.81 260.14"><defs><style>.cls-1{fill:#fff;}</style></defs><g id="Layer_1-2"><g><path class="cls-1" d="M730.65,255.36c-10.77-20.86-21.57-41.69-32.28-62.58-.75-1.47-1.17-3.27-1.19-4.93-.14-18.07-.23-36.14-.16-54.21,0-2.52-.83-3.31-3.14-3.2-2.76,.13-5.53,.22-8.29,.2-12.83-.07-25.66-.18-38.5-.26-1.1,0-2.19,.1-3.66,.18v8.3h-10.37c0-1.93-.14-3.66,.03-5.37,.23-2.37-.5-3.28-3.04-3.17-4.72,.2-9.45,.14-14.17,0-1.67-.05-3.34-.62-4.99-1.06-6.99-1.89-13.93-4.01-20.99-5.63-2.13-.49-2.87-.95-2.9-3.19-.11-6.87-.41-13.75-.81-20.61-.24-4.17-.79-8.32-1.18-12.34,1.58-.62,2.95-1.17,4.32-1.71-.09-.33-.18-.66-.27-.99-1.48,.18-2.97,.36-4.44,.54-.95-5.01-1.87-9.81-2.8-14.69,1.53-.62,2.93-1.18,4.33-1.74l-.25-.89c-1.51,.16-3.03,.32-4.65,.5-1.27-4.55-2.53-9.02-3.74-13.35,1.56-.7,2.77-1.24,3.98-1.77-.11-.3-.23-.6-.34-.9-1.45,.2-2.9,.4-4.37,.61-1.55-4.12-3.04-8.09-4.54-12.06,1.49-.59,2.79-1.1,4.09-1.61-.07-.28-.14-.55-.21-.83-.74,0-1.59-.24-2.21,.04-2.04,.92-2.91,.08-3.66-1.77-1.2-2.93-2.65-5.75-4.06-8.75,1.37-.55,2.67-1.08,3.97-1.6-.08-.31-.16-.62-.24-.93-1,.13-2.01,.4-3,.35-.79-.04-1.96-.22-2.29-.75-2.31-3.68-4.46-7.47-6.67-11.26,1.37-.59,2.55-1.09,3.73-1.6,.08-.4,.17-.79,.25-1.19-7.14,2.93-7.62-3.61-10.68-6.46-.22-.21-.39-.48-.59-.71-4.69-5.36-12.78-5.2-17.19,.36-1.15,1.45-2.39,2.86-3.27,4.46-1.4,2.53-3.04,3.99-6.06,2.62-.32-.14-.85,.19-1.28,.3-.04,.21-.08,.43-.12,.64,1.22,.51,2.44,1.03,3.76,1.58-2.47,4.17-4.86,8.21-7.2,12.18-1.7-.17-3.23-.33-4.75-.49-.05,.36-.11,.73-.16,1.09,1.29,.44,2.58,.88,3.96,1.35-1.84,3.81-3.61,7.44-5.32,10.98-1.73-.23-3.14-.41-4.55-.6-.09,.33-.18,.66-.27,.99,1.3,.53,2.6,1.05,4.02,1.62-1.54,4.09-3.04,8.07-4.52,12.03-1.64-.15-3.1-.28-4.57-.42-.06,.26-.13,.51-.19,.77,1.32,.61,2.64,1.22,4.46,2.06-6.37,1.46-6.83,1.26-9.16-3.44-.09-.18-.11-.45-.25-.56-1.16-.88-2.36-2.46-3.49-2.41-1.3,.06-3.27,1.32-3.66,2.48-1.27,3.87-3.56,5.36-7.49,4.58-.37-.07-.79,.14-1.64,.3v8.05h-12.74c-1.42-4.09-2.5-8.06-4.2-11.75-.73-1.59-2.65-3.45-4.18-3.59-1.23-.11-3.26,1.91-3.93,3.43-1.68,3.8-2.8,7.86-4.14,11.82h-3.1c-1.49-7.19-2.51-14.22-4.48-20.97-1.41-4.84-3.64-9.59-6.34-13.85-2.64-4.18-7.19-4.21-9.89-.16-2.58,3.86-4.79,8.17-6.14,12.59-1.84,6.04-2.67,12.39-4.03,18.58-.16,.71-.93,1.29-1.42,1.93-.61-.48-1.52-.84-1.79-1.47-1.19-2.79-2.2-5.67-3.27-8.49,1.24-.58,2.29-1.08,3.34-1.58l-.26-.85c-1.25,.12-2.5,.25-3.93,.39-1.45-3.04-2.93-6.13-4.39-9.17,1.25-.53,2.27-.97,3.28-1.4l-.25-.94c-1.33,.12-2.65,.23-4.07,.36-1.98-3.38-3.99-6.8-5.98-10.19,1.15-.6,2.09-1.08,3.03-1.57l-.31-.88c-1.33,.19-2.66,.38-3.9,.56-1.95-2.53-3.65-5.13-5.73-7.36-4.01-4.29-10.6-3.95-14.37,.54-.79,.94-1.6,1.89-2.23,2.94-1.5,2.54-3.05,4.86-6.6,3.42-.06-.02-.24,.26-.73,.79,1.19,.56,2.22,1.04,3.28,1.54-2.14,3.58-4.18,6.98-6.09,10.17-1.59-.07-2.88-.13-4.16-.19-.05,.28-.1,.57-.15,.85,1.04,.44,2.09,.88,3.29,1.38-1.48,3.11-2.95,6.2-4.31,9.06h-4.2l-.14,.73c1.14,.45,2.28,.9,3.49,1.38-1.31,3.43-2.58,6.75-3.84,10.03-1.51-.09-2.78-.17-4.04-.24l-.13,.77c.78,.43,1.57,.86,2.85,1.56-5.27,0-9.94-.1-14.62,.05-1.91,.06-2.6-.51-3.09-2.39-.93-3.55-2.08-7.09-3.61-10.42-.6-1.31-2.45-2.71-3.81-2.79-1.15-.07-2.79,1.46-3.55,2.69-1.12,1.79-1.83,3.9-2.39,5.96-5.45,19.75-6.3,40.05-6.95,60.36-.15,4.62,.2,4.73-4.51,5.07-14.9,1.08-28.35,6.1-40.59,14.6-1.16,.8-2.81,1.24-4.24,1.25-13.25,.1-26.5,.06-39.75,.07-1.19,0-2.38,.12-3.87,.19v23.08l-.96,.17c-2.84-10.22-6.34-20.31-8.39-30.69-3.71-18.78-6.91-37.69-9.62-56.64-1.58-11.05-1.77-22.29-2.68-33.44-.06-.77-.88-2.1-1.38-2.12-5.4-.15-10.81-.1-16.55-.1,0,1.57,0,2.78,0,3.98,0,5.34,.1,10.69,0,16.02-.1,5.11-3.61,9.1-7.78,9.12-3.94,.01-6.24-3.28-6.26-8.92,0-.51,0-1.03,0-1.54,0-5.83,0-11.65,0-17.68h-15.07v10.07h-14.09v-10h-15.08c0,7.24,.04,14.21-.02,21.18-.02,3.3-1.98,6.11-4.8,6.75-3.05,.69-5.63-.63-7.12-3.12-1.1-1.83-1.7-4.17-1.82-6.32-.26-4.5-.06-9.04-.06-13.55,0-1.91,0-3.82,0-5.86h-17.82c-.15,.94-.34,1.73-.4,2.53-1.05,12.57-1.88,25.17-3.17,37.72-2.11,20.62-5.77,40.99-11.15,61.02-4.8,17.87-10.8,35.28-20.95,50.94-6.88,10.6-15.29,19.53-27.49,24.15-.72,.27-1.44,1.59-1.48,2.45-.16,3.65-.07,7.31-.07,11.13H.51c-.3,.47-.4,.55-.4,.63-.06,9.44-.16,18.88-.08,28.32,0,.55,1.44,1.54,2.22,1.55,7.18,.12,14.37,.07,21.55,.07,61.52,0,123.04,0,184.56,0s123.45,0,185.17,0c61.52,0,123.03,0,184.55,0,50.43,0,100.86,0,151.29-.02,.97,0,1.93-.11,3.44-.21-.88-1.85-1.48-3.22-2.17-4.54Zm-99.39-123.09v8.26h13.87v-8.38h50.16v57.73h-114.3v-10.1c1.28-.14,2.45-.26,3.92-.42v-13.67c1.67-.13,3.06-.24,4.8-.37,.37-2.22,.75-4.48,1.19-7.15h-15.2c.29-6.45,.56-12.53,.85-18.96h-16.46v-6.93h71.17Zm-244.23,45.41v-12.1h195.99v12.1h-195.99Zm192.09,1.96v70.67h-44.7v-70.67h44.7Zm-50.39,.03v10.19h-6.5v-10.19h6.5Zm-8.61-.01v64.75h-8.85v-64.75h8.85Zm-10.73,.02v10.26h-48.62v-10.26h48.62Zm-50.6,.1v64.65h-8.72v-64.65h8.72Zm-10.75-.02v10.15h-10.12v-10.15h10.12Zm-12.24,.02v70.51h-44.83v-70.51h44.83Zm39.57-44.55c3.18-2.27,6.36-4.54,9.73-6.94,3.21,2.29,6.48,4.62,9.75,6.95,.28-.18,.56-.35,.85-.53-.68-2.24-1.33-4.5-2.06-6.73q-1.58-4.87,2.48-7.73c.97-.69,1.95-1.36,3.43-2.4-.92,7.42-1.76,14.26-2.63,21.3-7.46,0-14.63,.06-21.79-.08-.74-.01-1.99-1.13-2.09-1.87-.88-6.27-1.55-12.57-2.28-18.91,.4,.02,.64-.05,.76,.04,2.15,1.69,5.45,3.05,6.1,5.21,.66,2.18-1.33,5.15-2.12,7.79-.33,1.1-.57,2.23-.85,3.35,.24,.18,.48,.36,.72,.54Zm99.58,5.65c-.2,1.46-.35,2.64-.55,4.07h-178.51c-.24-1.34-.46-2.53-.74-4.07h179.8Zm-.83,6.07v10.96h-178.08v-10.96h178.08Zm14.71,12.72c-.17,1.5-.31,2.67-.48,4.15-4.57,0-8.95,0-13.34,0-27,0-54-.03-81,0-33.01,.02-66.03,.09-99.04,.12-2.87,0-5.75-.24-8.61-.06-2.81,.18-4.6-.51-4.47-4.2h206.94Zm-195.25-2.4c-1.49-1.51-5.15-1.55-7.37,.03-.79,.56-2.05,.53-3.11,.62-1.11,.1-2.23,.02-3.32,.02-.22,4.94,1.41,7.35,5.35,7.73v13.58c1.45,.18,2.62,.33,3.98,.51v10.17h-62.76v-49.23h67.23v16.56Zm215.02-27.09h-34.59v-5.33c11.69-.77,23,.53,34.59,5.33Zm-90.98-96.53c4.95-9.29,10.61-18.22,16.4-27.02,4.42-6.72,11.36-6.75,16.23-.37,14.19,18.59,23.5,39.52,29.17,62.11,4.24,16.89,5.98,34.09,6.03,51.47,0,.9-.11,1.81-.18,2.95h-11.37c0-1.22,0-2.31,0-3.41,0-17.86,0-35.72,0-53.57,0-6.8-3.03-9.77-9.73-9.73-6.16,.04-12.32-.11-18.47,.06-2.15,.06-3.2-.69-3.78-2.61-.26-.87-.71-1.71-1.18-2.49-1.81-2.99-4.67-3.07-6.62-.22-.06,.08-.16,.16-.18,.25-1.09,5.39-5.01,5.27-9.28,5.07-5.2-.24-10.42-.06-16.5-.06,3.27-7.89,5.75-15.48,9.45-22.43Zm23.69,21.69c-.22,.21-.45,.43-.67,.64h-6.54c-.24-.25-.47-.5-.71-.75,1.33-1.55,2.65-3.09,3.98-4.64,1.32,1.58,2.63,3.16,3.95,4.74Zm-47.11-4.76c1.41,1.5,2.82,3,4.23,4.5-.24,.29-.48,.59-.72,.88h-7.69c1.67-2.14,2.93-3.76,4.18-5.38Zm-10.73,7.09c9.16,0,17.96,0,26.76,0,17.86,0,35.71,0,53.57,.01,6.11,0,8.38,2.22,8.38,8.31,.02,20.53,0,41.06,0,61.6,0,.8,0,1.6,0,2.73h-13.67v8.87h-59.76c.49-4.36,.92-8.37,1.39-12.39,.37-3.16,.65-6.33,1.21-9.45,.37-2.07-.43-2.53-2.26-2.47-2.46,.09-4.93-.04-7.39,.06-1.67,.07-2.58-.37-3.05-2.17-.8-3.04-1.95-5.99-3.08-9.34-.86,.79-1.45,1.32-2.11,1.93V57.67Zm.4,53.54c.32-1.01,.7-2.01,1.28-3.67,.95,2.87,1.52,5.13,2.48,7.2,.39,.84,1.58,1.73,2.5,1.83,2.28,.26,4.61,.09,7.8,.09-3.04,2.29-5.37,4.03-7.78,5.85,.9,2.96,1.77,5.83,2.82,9.28-2.15-1.56-3.92-2.6-5.39-3.96-1.82-1.68-3.3-1.42-5.04,.08-1.52,1.31-3.23,2.4-5.34,3.94,.92-2.88,1.82-5.14,2.32-7.49,.19-.9-.25-2.32-.93-2.94-1.71-1.56-3.71-2.79-5.6-4.15l.23-.59c1.11,0,2.22,0,3.33,0q5.61,0,7.33-5.45Zm-1.96-44.8c0,3.42,.03,6.76,0,10.11-.12,11.16-.23,22.33-.4,33.49-.08,4.95-.13,4.95-5.15,4.89-.71,0-1.41-.06-2.07-.09-1.55-16.31-3.06-32.29-4.59-48.41h12.22Zm-26.37-5.66c.5-1.98,1.01-4.01,1.92-5.82,.83-1.63,2.21-2.98,3.34-4.46,1.11,1.52,2.69,2.88,3.24,4.58,1.49,4.57,3.11,9.21,3.65,13.94,1.72,14.97,2.97,29.99,4.39,44.99,.02,.18-.12,.38-.24,.72l-3.11,.46c.24,2.57,.47,4.97,.72,7.56h-20c0-3.95-.21-7.83,.04-11.67,1.06-16.88,1.84-33.8,6.04-50.31Zm-15.23,39.44c-5.5,.17-11.01,.05-16.75,.05v22.44h-3.67c-.52-9.63-1.05-19.32-1.58-29.24h30.48c-.5,9.78-.99,19.45-1.5,29.3h-3.55c0-6.47-.14-12.8,.06-19.13,.09-2.79-.86-3.52-3.5-3.44Zm1.56,1.91v20.62h-16.43v-20.62h16.43Zm-23.76-10.75c-.31-2.72-.61-5.42-.95-8.38h32.78c-.29,2.86-.57,5.57-.86,8.38h-30.97Zm34.25-25.12c-.59,3.89-1.15,7.55-1.71,11.21l-.47,.08c-.27-3.63-.53-7.27-.82-11.14,1.04-.05,1.89-.1,3-.16Zm-32.48-2.32c1.21-9.56,2.61-19.11,6.71-27.98,.85-1.85,1.9-3.66,3.13-5.27,2.51-3.27,5.28-3.18,7.77,.1,4.01,5.29,5.97,11.48,7.07,17.84,1.83,10.58,3.2,21.23,4.82,32.23h-31.03c.51-5.77,.82-11.37,1.53-16.92Zm-2.15,2.47c-.24,3.64-.47,7.13-.71,10.61l-.58,.03c-.53-3.46-1.06-6.92-1.64-10.65h2.93Zm-4.32,2.73c3.14,17.28,4.01,34.79,4.58,52.31,.01,.39-.08,.78-.15,1.35h-23.12c.4-8.18,.37-16.27,1.28-24.26,1.45-12.79,3.43-25.53,5.4-38.26,.4-2.57,1.63-5.05,2.71-7.46,.41-.92,1.45-2.09,2.26-2.13,.74-.04,1.98,1.15,2.26,2.03,1.74,5.43,3.76,10.84,4.78,16.42Zm-31.54-2.77h15.43c-1.61,18.79-3.21,37.51-4.84,56.56h-5.78c-1.62-18.98-3.21-37.62-4.82-56.56Zm2.23,56.38h-23.03c.33-7.22,.36-14.2,1.02-21.13,1.11-11.53,2.39-23.05,4.09-34.5,.71-4.8,2.61-9.44,4.18-14.08,.33-.98,1.63-2.35,2.39-2.3,.89,.06,2.14,1.36,2.44,2.35,1.82,6.07,4.24,12.11,4.92,18.33,1.8,16.51,2.82,33.11,4.13,49.68,.04,.48-.08,.98-.14,1.64Zm-25.21-62.84c5-13.19,11.38-25.64,19.87-36.95,4.49-5.98,10.06-5.87,14.56,.17,6.01,8.06,11.07,16.67,15.43,26.27-3.64-1.49-5.44,.29-6.47,3.07-1.24,3.35-2.18,6.81-3.44,10.16-.3,.79-1.31,1.85-2.03,1.87-5.32,.16-10.64,.09-15.88,.09-1.25-3.82-2.38-7.41-3.6-10.97-.33-.96-.8-1.9-1.37-2.74-1.95-2.91-5-2.96-6.55,.2-1.61,3.28-2.61,6.85-3.83,10.31-.37,1.04-.59,2.14-.87,3.22h-7.24c.49-1.69,.84-3.24,1.4-4.71Zm4.7,6.47c-1.59,18.74-3.17,37.45-4.79,56.57h-15.19c-1.56-18.87-3.11-37.67-4.67-56.57h24.65Zm-43.27,21.43c1.03-9.44,2.9-18.79,4.62-28.13,.45-2.47,1.54-4.88,2.66-7.16,1.31-2.69,3.23-2.78,4.26-.01,1.89,5.05,3.72,10.22,4.69,15.5,3.06,16.55,4.22,33.31,4.7,50.12,.04,1.52,.19,3.04,.3,4.82h-23.82c.84-11.84,1.32-23.53,2.59-35.13Zm-16.5,38.12c13.34-2.37,26.81-1.26,40.23-1.39,17.04-.16,34.08,.12,51.11,.14,23.73,.03,47.45,0,71.18,0,1.02,0,2.03,0,3.39,0,.61,4.89,1.19,9.44,1.81,14.45h-198.72c10-6.82,19.97-11.25,30.99-13.2Zm20.73,14.98v49.01h-34.1v-49.01h34.1Zm-98.9-.06h62.81v49.27c-4.36,0-8.74,0-13.12,0-12.12-.01-24.24-.08-36.36,0-1.87,.01-3.06-.43-3.88-2.14-2.94-6.09-5.96-12.13-8.9-18.22-.34-.71-.52-1.57-.52-2.36-.04-8.72-.02-17.45-.02-26.55Zm-39.83-97.92c0-.49,.1-.98,.17-1.65h14.34c.45,6.42,.78,12.75,1.36,19.06,3.48,37.94,8.84,75.5,23.36,111.11,5.57,13.67,12.52,26.63,23.87,36.46,4.11,3.56,9.13,6.13,13.9,8.87,1.51,.86,2.41,1.42,2.29,3.33-.19,2.96-.05,5.93-.05,9.18h-46.89c0-1.17,0-2.35,0-3.54,0-11.4,.02-22.79,0-34.19,0-6.97-2.87-10.27-9.91-11.44v-9.64h-10.17v9.43h8.02c-6.97,2.58-7.61,8.12-7.52,14.34,.18,11.59,.05,23.19,.05,35.02h-4.04v-7.8c-2.23,0-4.09,.21-5.86-.09-.92-.16-2.02-1.05-2.44-1.91-.51-1.04-.5-2.39-.5-3.61,.01-27.4,.05-54.81,.09-82.21,.01-10.47,.04-20.94,.03-31.41-.02-19.78-.07-39.55-.1-59.33Zm37.74,196.12H72.59v-7.54H223.56v7.54Zm12.25,1.97v7.47H60.55v-7.47H235.81Zm-156.12-50.05c.01-4.19,2.01-7.22,5.41-8.48,3.19-1.18,6.68-.31,8.8,2.57,.92,1.25,1.7,2.95,1.71,4.45,.12,13.04,.05,26.09,.03,39.13,0,.18-.14,.36-.32,.81h-15.44c-.07-.97-.18-1.85-.19-2.74-.01-11.91-.03-23.83,0-35.74Zm32.57,38.36v-5.55h11.01v5.55h-11.01Zm11.24-49.35c-.27,1.91-.06,3.88-.06,5.83l-.8-.36c-.91,1.4-2.06,2.7-2.67,4.21-1.18,2.92-2.07,5.96-3.13,9.11-2.77-.97-4.59-2.76-4.63-5.55-.15-11.49-.14-22.98-.03-34.46,0-.64,1.49-1.75,2.33-1.8,3.65-.2,7.32-.09,11.38-.09,0,5.61,0,10.63,0,15.64,0,.4-.04,1.1-.21,1.14-3.83,1.04-1.87,4.13-2.19,6.32Zm-7.34,20.81c-1.15,3.58-2.35,7.28-3.54,10.98l-.52-.04v-13.7c1.36,.92,2.54,1.73,4.06,2.76Zm9.11-24.74h45.48v3.85h-45.48v-3.85Zm32.98-40.81h9.98v38.65h-13.4c4.04-12.55,4.49-25.37,3.42-38.65Zm25.96,22.18c0,3.43,0,6.69,0,9.95,0,8.01,0,16.01,0,24.02,0,3.35-1.28,5.9-4.48,7.29-3.07-3.91-1.55-10.15-7.1-13.25,0-1.84,.23-4.22-.07-6.52-.25-1.86,1.91-4.97-2.31-5v-16.48h13.96Zm-13.83-2.13v-26.21h13.57v26.21h-13.57Zm13.63,42.71v13.55l-.35,.14c-1.2-3.58-2.4-7.17-3.64-10.87,1.25-.88,2.47-1.74,3.99-2.82Zm-58.66-16.17h45.35v4.46h-10.95v10.3h-23.22v-10.27h-11.19v-4.5Zm34.09,16.92v10.8h-22.86v-10.8h22.86Zm-23.02,12.96h23.22v11.52h11.09v6.27h-45.34v-6.06h11.04v-11.74Zm36.32,17.61v-5.83h11.23v5.83h-11.23Zm13.2,.09v-5.97h6.83v5.97h-6.83Zm22.52-47.41c4.72,.04,7.97,3.85,7.98,9.35,0,1.43-.07,2.88,.08,4.3,.75,7.08-1.08,13.46-4.74,19.51-2.16,3.57-3.96,7.39-5.63,11.23-1.09,2.49-2.41,3.94-5.8,2.82,0-1.67,0-3.39,0-5.11,0-10.96-.02-21.93,.02-32.89,.02-5.53,3.33-9.25,8.09-9.21Zm-2.07-3.74h-6.65v-6.26h6.65v6.26Zm9.94,32.79v18.28h-9.74c3.1-6.22,6.16-12.35,9.21-18.49l.52,.21Zm-54.92,10.32v-33.46c4,0,7.85-.05,11.69,.06,.46,.01,1.13,.84,1.32,1.41,3.53,10.57,7,21.16,10.56,31.98h-23.57Zm8.88-153.45c5.68,3.55,8.48,3.27,13.84-1.62v11c-4.78-.75-9.46-1.76-13.84,1.76v-11.14Zm-.11,14.22c.6-2.16,4.38-3.98,8.05-3.89,6.03,.15,7.42,2.24,5.42,8.14-1.36,4.03-5.55,6.61-9.02,5.56-3.12-.94-5.47-6.13-4.45-9.81Zm13.97,8.39v10.12c-2.32-.14-4.65-.56-6.93-.35-2.29,.22-4.52,1.08-6.98,1.71v-9.97c2.37,.59,4.81,1.84,7.1,1.59,2.31-.25,4.46-1.96,6.82-3.1Zm-14.08,15.82c.05-1.28,1.48-3.01,2.72-3.64,3.36-1.71,6.97-1.2,10.42,0,.47,.16,.94,1.11,.95,1.7,.06,7.46,.04,14.91,.04,22.59h-14.26c0-6.99-.14-13.83,.13-20.65Zm-13.24-50c-.17-4.59-.06-9.2-.06-14.05h11.54v90.86h-10.49c-.37-6.88-.97-13.77-1.05-20.66-.16-14.86-.08-29.73-.04-44.59,0-2.67-.8-5.68,1.71-6.7-.73-2.14-1.55-3.48-1.6-4.85Zm-1.55,72.36c.14-1.05,.02-2.14,.02-3.22l.54-.1c.21,.7,.61,1.4,.61,2.1,.1,9.5,.52,19.02,.06,28.5-.26,5.45-1.87,10.85-3.1,16.22-.18,.78-1.59,1.7-2.5,1.8-2.43,.25-4.9,.09-7.44,.09-1.55-2.99-1.98-5.55-.17-8.85,6.23-11.4,10.23-23.61,11.98-36.52Zm-.23-10.79c-.26,.05-.52,.09-.78,.14-.18-.92-.66-1.9-.48-2.74,.54-2.63-.13-5.06-2.4-6.08-1.82-.81-4.41-.92-6.29-.28-2.44,.84-3,3.37-2.75,5.95,.1,1.01-.17,2.05-.27,3.07l-.81-.06v-22.74h13.78v22.72Zm-13.63-38.91q-.67-4.58,6.39-9.72c7,3.52,7.49,4.17,7.14,9.72h-13.53Zm13.45,2.18v12.02h-13.52v-12.02h13.52Zm.08-28.42v6.4c-4.26,.74-4.44,.54-5.72-6.4h5.72Zm-13.71-.01h5.43c-.08,5.42-1.33,6.98-5.43,6.54v-6.54Zm6.73,3.38c.62,4.57,2.98,6.09,7.07,5.57-1.31,1.03-2.61,2.06-3.97,3.12,.49,1.64,.96,3.18,1.42,4.71-2.97-2.69-5.81-2.8-8.95,.32,2.58-4.06,.9-6.42-2.74-8.45,4.28,.69,6.78-.55,7.16-5.29Zm-5.81,64.59c1.33-2.18,3.3-3.91,1.91-7-.32-.71,1.22-2.92,2.36-3.44,1.11-.5,3.18-.16,4.14,.64,.94,.79,1.15,2.59,1.41,4,.1,.58-.52,1.29-.99,2.34,4.13,2.38,3.59,5.97,3,9.75-2.03,13.06-5.87,25.5-12.06,37.19-.19,.35-.39,.69-1.03,1.8-.55-3.56-1.11-6.37-1.4-9.21-1.08-10.53-.15-21.02,1.06-31.48,.18-1.58,.77-3.24,1.6-4.59Zm-14.3-78.38h11.32v16.86c-.61,.24-1.4,.54-2.26,.86,.1,.42,.07,.86,.24,.95,2.16,1.14,2.25,3.06,2.24,5.2-.05,17.23,.08,34.47-.08,51.7-.05,5.07-.85,10.13-1.31,15.33h-10.15V42.31Zm-.08,92.95h10.11c-.85,13.07-.79,25.99,3.48,38.7h-13.59v-38.7Zm-1.86,20.15h-13.63v-26.3h13.63v26.3Zm-.04-70.67c-.12,3.96-1.94,6.66-4.9,7.27-3.27,.67-6.96-1.39-8.14-5.05-.67-2.08-.61-4.41-.68-6.64-.01-.43,.79-1.14,1.33-1.29,1.56-.44,3.19-.66,4.79-.97,5.21,.17,7.73,2.33,7.6,6.68Zm-13.72-18.08c4.29,3.75,8.66,5.46,13.68,.88v10.13l-13.68-1.2v-9.8Zm-.03,23.18c4.01,4.31,8.41,5.67,13.6,1.55v11.02c-4.21-2.85-8.66-2.91-13.6-1.35v-11.23Zm-.02,14.39c0-.58,.81-1.58,1.33-1.64,2.61-.3,5.33-.81,7.86-.38,3.57,.61,4.61,2.4,4.61,6.07,0,6.15,0,12.3,0,18.77h-13.86c0-7.71-.03-15.27,.06-22.82Zm7.54,91.57c.83-2.51,1.07-5.94,2.84-7.22,1.78-1.29,5.11-.43,7.77-.49,1.41-.03,2.83,0,4.54,0v33.52h-23.67c2.91-8.81,5.7-17.31,8.52-25.81Zm-9.61,33.57h-6.54v-5.89c6.9-1,7.44-.52,6.54,5.89Zm-78.81-10.65c.01-.51,.66-1.26,1.18-1.47,15.63-6.12,24.88-18.64,32.47-32.67,9.99-18.47,15.68-38.48,20.11-58.86,5.28-24.29,8.49-48.88,10.02-73.69,.22-3.48,.49-6.95,.76-10.7h14.55c0,7.88,0,15.65,0,23.43,0,50.33,.01,100.65,.02,150.98,0,.51,.02,1.03,0,1.54-.15,3.87-.45,4.16-4.27,4.18-1.32,0-2.64,0-4.34,0v7.86h-4.31c0-.96,0-1.96,0-2.95,0-11.71,0-23.42,0-35.13,0-5.77-1.97-8.66-7.29-11.09h7.95v-9.69h-10.08v9.55c-.46,.09-1.03,.2-1.59,.32-5.56,1.22-8.35,4.65-8.37,10.5-.04,12.72-.01,25.45-.01,38.45H31.21c0-3.48-.05-7.03,.05-10.57Zm58.41-40.6v-5.95h6.84v5.95h-6.84Zm-42.05,80.11H1.63v-26.76H70.69v7.73h-12v9.51h-11.07v9.52Zm199.12,.08H49.55v-7.73H246.74v7.73Zm47.68-.02h-45.8v-9.5h-11.03v-9.47h-11.99v-7.86h68.83v26.83Zm81.78-.1h-79.83v-28.61h-29.63c0-3.77-.1-7.14,.04-10.5,.08-1.92-.5-2.83-2.41-3.55-11.55-4.33-19.55-12.84-26.2-22.84-.09-.13-.01-.38-.01-.78h150.92v58.45h-12.88v7.83Zm60.02,.1h-58.33v-5.96h58.33v5.96Zm10.01-.1h-7.99v-5.87h7.99v5.87Zm-.74-7.99h-7.66v-58.22h10.23v52.18q-2.08,.84-2.57,6.03Zm2.11-3.75h13.74v3.77h-13.74v-3.77Zm19.2,11.84h-18.54v-5.89h18.54v5.89Zm34.62-.04h-32.71v-7.68c-1.98-.09-3.57-.16-5.07-.23-1.2-2.04,1.43-5.68-2.94-5.98v-52.45h48.76v52.34c-4.1,.31-2.03,3.73-2.85,6.08-1.44,.07-2.94,.14-4.83,.22-.11,2.49-.22,4.98-.35,7.71Zm20.53,.06h-18.58v-5.96h18.58v5.96Zm.64-8.06h-13.91v-3.78h13.91v3.78Zm9.32,7.99h-7.8v-5.94h7.8v5.94Zm.47-7.98h-7.42c-1.46-1.77,1.57-5.58-2.87-5.92v-52.4h10.29v58.32Zm-1.4-60.03v-10.61c2.11,1.04,2.28,8.76,0,10.61Zm61.28,68.05h-58.31v-5.99h58.31v5.99Zm2.04,.04v-7.76h-13.22v-58.78c1.72,0,3.43,0,5.15,0,35.43,0,70.86,.03,106.28-.05,2.49,0,3.78,.74,4.92,2.98,10.3,20.17,20.75,40.26,31.14,60.38,.46,.9,.87,1.82,1.53,3.22h-135.8Z"/><path class="cls-1" d="M582.34,146.14c3.63,1.06,7.81,.24,11.82,.24v-10.26c-4.01,0-7.79-.12-11.55,.11-.64,.04-1.78,1.67-1.66,2.4,.4,2.58-1.95,6.53,1.39,7.5Zm.3-8.11h9.7v6.58h-9.7v-6.58Z"/><path class="cls-1" d="M623.01,146.21v-10.09c-3.99,0-7.76-.06-11.52,.06-.54,.02-1.49,.86-1.52,1.37-.15,2.83-.07,5.67-.07,8.66h13.11Zm-11.32-8.25h9.67v6.7h-9.67v-6.7Z"/><path class="cls-1" d="M540.96,67.77h-8.77v13.97h8.77v-13.97Zm-1.68,12.31h-5.36v-10.6h5.36v10.6Z"/><path class="cls-1" d="M554.52,67.77h-8.77v13.97h8.77v-13.97Zm-1.68,12.31h-5.36v-10.6h5.36v10.6Z"/><path class="cls-1" d="M568.07,67.77h-8.77v13.97h8.77v-13.97Zm-1.68,12.31h-5.36v-10.6h5.36v10.6Z"/><path class="cls-1" d="M554.52,91.44h-8.77v13.97h8.77v-13.97Zm-1.68,12.31h-5.36v-10.6h5.36v10.6Z"/><path class="cls-1" d="M568.07,91.44h-8.77v13.97h8.77v-13.97Zm-1.68,12.31h-5.36v-10.6h5.36v10.6Z"/><path class="cls-1" d="M522.23,67.77h-8.77v13.97h8.77v-13.97Zm-1.68,12.31h-5.36v-10.6h5.36v10.6Z"/><path class="cls-1" d="M509.07,67.77h-8.77v13.97h8.77v-13.97Zm-1.68,12.31h-5.36v-10.6h5.36v10.6Z"/><path class="cls-1" d="M495.92,67.77h-8.77v13.97h8.77v-13.97Zm-1.68,12.31h-5.36v-10.6h5.36v10.6Z"/><path class="cls-1" d="M233.29,219.47c2.63,.22,5.28,.09,8.24,.09v-9.53h-10.26c0,2.71-.15,5.17,.09,7.59,.07,.7,1.21,1.79,1.93,1.86Zm-.13-7.8h6.58v6h-6.58v-6Z"/><path class="cls-1" d="M195.56,133.37v9.6h10.24c0-2.84,.08-5.48-.07-8.11-.03-.52-.93-1.4-1.46-1.42-2.83-.14-5.67-.07-8.71-.07Zm8.39,7.88h-6.69v-6.01h6.69v6.01Z"/><path class="cls-1" d="M230.44,192.92h-10.04v9.42h10.04v-9.42Zm-1.71,7.86h-6.61v-6.27h6.61v6.27Z"/><path class="cls-1" d="M201.21,94.01h-9.99v9.46h9.99v-9.46Zm-1.7,7.67h-6.71v-5.96h6.71v5.96Z"/><path class="cls-1" d="M64.55,209.98h-10.06v9.4h10.06v-9.4Zm-1.63,7.68h-6.53v-6.04h6.53v6.04Z"/><path class="cls-1" d="M105.22,95.04c-.02-.42-.92-1.11-1.43-1.13-2.83-.11-5.67-.05-8.67-.05v9.7h10.17c0-2.87,.06-5.7-.07-8.52Zm-1.78,6.71h-6.68v-6.05h6.68v6.05Z"/><path class="cls-1" d="M100.71,133.53h-9.95v9.52h9.95v-9.52Zm-1.69,7.74h-6.72v-5.99h6.72v5.99Z"/><path class="cls-1" d="M72.53,202.5c1,0,1.99,0,3.36,0v-9.83c-3.2,0-5.95-.12-8.67,.09-.62,.05-1.59,1.15-1.66,1.85-.88,7.88-.84,7.89,6.97,7.89Zm-5.14-7.89h6.61v6.15h-6.61v-6.15Z"/><path class="cls-1" d="M336.14,156.51v6.56h6.38c.93-7.07,.55-7.47-6.38-6.56Zm4.75,4.96h-3.06c-.06-1.04-.12-2.09-.19-3.4h3.25v3.4Z"/><path class="cls-1" d="M367.81,156.38h-6.45v6.66h6.45v-6.66Zm-1.7,5.1h-3.22v-3.36h3.22v3.36Z"/><path class="cls-1" d="M573.09,190.33h-13.88v9.1h13.88v-9.1Zm-1.69,7.41h-10.39v-5.7h10.39v5.7Z"/><path class="cls-1" d="M554.63,206.86h-13.83v8.87h13.83v-8.87Zm-1.73,7.2h-10.32v-5.7h10.32v5.7Z"/><path class="cls-1" d="M568.91,233.28c.61-.02,1.65-.92,1.69-1.48,.18-2.5,.08-5.03,.08-7.58h-14.01v9.13c4.32,0,8.28,.06,12.24-.07Zm-10.58-7.38h10.47v5.68h-10.47v-5.68Z"/><path class="cls-1" d="M429.35,190.31h-13.76v9.05h13.76v-9.05Zm-1.64,7.51h-10.3v-5.84h10.3v5.84Z"/><path class="cls-1" d="M410.91,206.84h-13.75v8.9h13.75v-8.9Zm-1.63,7.2h-10.37v-5.66h10.37v5.66Z"/><path class="cls-1" d="M425.08,233.31c.67-.02,1.84-.82,1.88-1.33,.19-2.6,.09-5.23,.09-7.81h-13.98v9.2c4.25,0,8.13,.07,12.01-.06Zm-10.31-7.41h10.41v5.67h-10.41v-5.67Z"/><path class="cls-1" d="M546.27,45.55c.44,.22,.88,.44,1.32,.67,1.19-2.11,2.39-4.23,3.58-6.34-.48-.24-.97-.48-1.45-.72l-3.45,6.39Z"/><path class="cls-1" d="M538.75,45.96c-1.67-2.73-2.91-4.77-4.52-7.4-.54,3.27,1.36,6.43,4.52,7.4Z"/><path class="cls-1" d="M546.92,31.15c1.19-2.49,2.2-4.61,3.21-6.72-3.02,1.41-4.33,4.37-3.21,6.72Z"/><path class="cls-1" d="M540.31,15.01c-.78-2.12-1.57-4.24-2.35-6.36-.42,.15-.85,.31-1.27,.46,.72,2.13,1.45,4.26,2.17,6.39,.49-.17,.97-.33,1.46-.5Z"/><path class="cls-1" d="M534.16,24.47c1.17,2.26,2.23,4.31,3.29,6.37,1.01-3.14-.86-6.22-3.29-6.37Z"/><path class="cls-1" d="M547.77,9.13c-.49-.14-.99-.29-1.48-.43-.64,2.16-1.28,4.32-1.92,6.48,.44,.13,.88,.26,1.31,.39,.7-2.15,1.39-4.29,2.09-6.44Z"/><path class="cls-1" d="M233.01,151.76c1.1-7.08,.12-7.99-6.48-6.35v6.35h6.48Zm-4.81-5.14h3.31c.07,.97,.14,1.93,.22,3.15h-3.53v-3.15Z"/><path class="cls-1" d="M259.18,151.62h7.23c-.29-2.33,.12-5.06-1.05-6.37-.88-.99-4.91-.91-5.56,.05-1.06,1.55-.5,4.2-.62,6.33Zm1.75-5h3.43c.05,1.07,.09,2.05,.14,3.15h-3.57v-3.15Z"/><path class="cls-1" d="M287.73,145.02h-6.45v6.56h6.45v-6.56Zm-1.67,4.81h-3.07v-3.2h3.07v3.2Z"/><path class="cls-1" d="M244.04,145.11h-6.41v6.51h6.41v-6.51Zm-1.69,4.71h-3.08v-3.2h3.08v3.2Z"/><path class="cls-1" d="M276.87,145.1h-6.52v6.54h6.52v-6.54Zm-1.61,4.74h-3.26c-.05-1.03-.1-2-.17-3.2l3.43-.29v3.5Z"/><path class="cls-1" d="M255.02,144.94h-6.47v6.6h6.47v-6.6Zm-1.71,4.89c-1.03,.06-2,.12-3.2,.2v-3.47h3.2v3.27Z"/><path class="cls-1" d="M531.66,168.77h-93.04c2.06,1.9,90.84,1.93,93.04,0Z"/><path class="cls-1" d="M438.98,174.39h92.26c0-.44,0-.88,0-1.33-30.75,0-61.51,0-92.26,.02,0,.44,0,.87,0,1.31Z"/><path class="cls-1" d="M389.21,56.36c3.04-.98,4.46-3.78,3.41-6.21-1.34,2.44-2.37,4.32-3.41,6.21Z"/><path class="cls-1" d="M382.72,56.32c-1.11-1.89-2.22-3.78-3.33-5.66-.42,.24-.83,.48-1.25,.71,1.1,1.89,2.19,3.79,3.29,5.68,.43-.25,.85-.49,1.28-.74Z"/><path class="cls-1" d="M384.45,29.95c-.69-1.99-1.33-3.83-2.08-5.98-1.55,2.35-.33,5.72,2.08,5.98Z"/><path class="cls-1" d="M390.06,43.62c.97-1.84,1.95-3.67,2.92-5.51-.42-.23-.85-.47-1.27-.7-.99,1.83-1.98,3.66-2.98,5.48,.44,.24,.88,.48,1.32,.73Z"/><path class="cls-1" d="M390.87,24.71c-.46-.15-.91-.31-1.37-.46l-1.95,5.85c.44,.15,.87,.29,1.31,.44,.67-1.94,1.34-3.89,2.01-5.83Z"/><path class="cls-1" d="M383.29,43.01c-1.07-2.05-2-3.84-2.94-5.64l-.96,.59c.57,3.33,1.59,4.82,3.9,5.05Z"/><path class="cls-1" d="M325.61,86.77c.28-.03,.56-.05,.84-.08v-5.46l-.84,.02v5.51Z"/><path class="cls-1" d="M323.08,106h.87v-5.48h-.87v5.48Z"/><path class="cls-1" d="M329.33,70.33c.29-.01,.57-.03,.86-.04v-5.53c-.29,0-.57,0-.86,0v5.57Z"/><path class="cls-1" d="M409.71,81.33v5.49c.29,0,.57-.02,.86-.03,.65-1.86,1.04-3.72-.86-5.47Z"/><path class="cls-1" d="M413.2,100.5c-.3-.05-.59-.1-.89-.15v5.69h.89v-5.54Z"/><path class="cls-1" d="M405.85,70.27l.87,.04v-5.5l-.87,.03v5.43Z"/><path class="cls-1" d="M376.05,86.84h.85v-5.65c-.28,0-.57,0-.85,0v5.64Z"/><path class="cls-1" d="M366.13,106c.26,0,.52,0,.79-.01v-5.58h-.79v5.59Z"/><path class="cls-1" d="M372.31,70.31c.29-.03,.58-.06,.86-.09v-5.48l-.86,.02v5.55Z"/><path class="cls-1" d="M378.58,106.06l.82-.08v-5.52h-.82v5.59Z"/><path class="cls-1" d="M368.58,86.84c.28,0,.56,0,.83-.01v-5.7c-.28,0-.56,0-.83,.01v5.7Z"/><path class="cls-1" d="M457.33,81.27l-.85,.1v5.42l.85-.02v-5.5Z"/><path class="cls-1" d="M467.49,105.95v-5.53c-.45,.01-.9,.03-1.35,.04l.31,5.54,1.04-.05Z"/><path class="cls-1" d="M460.1,64.77v5.49c2.14-1.17,2.2-3.93,0-5.49Z"/><path class="cls-1" d="M464.83,81.26h-.88v5.52l.88,.08v-5.59Z"/><path class="cls-1" d="M454.81,100.49c-.28,0-.55,0-.83,0v5.53h.83v-5.53Z"/><path class="cls-1" d="M433.1,74.45h.85v-5.53h-.85v5.53Z"/><path class="cls-1" d="M424.02,74.49c.29-.01,.58-.02,.87-.04v-5.58h-.87v5.62Z"/><path class="cls-1" d="M440.66,65.46c.27,0,.54-.02,.81-.03v-5.45c-.27,0-.54,.02-.81,.02v5.45Z"/><path class="cls-1" d="M435.53,65.41c.29,0,.58,0,.87,0v-5.41l-.87,.06v5.35Z"/><path class="cls-1" d="M430.54,65.41c.29,0,.58,0,.86-.01v-5.38l-.86,.06v5.33Z"/><path class="cls-1" d="M438.11,50.12c-2.09,2.87-1.91,5.12,0,6.04v-6.04Z"/><path class="cls-1" d="M433.92,50.82l-.81-.03v5.35c.27,.03,.54,.05,.81,.08v-5.4Z"/><path class="cls-1" d="M437.63,74.51h.86v-5.67h-.86v5.67Z"/><path class="cls-1" d="M429.11,56.23l.86-.06v-5.37h-.86v5.43Z"/><path class="cls-1" d="M433.13,42.83v5.84c1.95-2.78,1.76-4.96,0-5.84Z"/></g></g></svg>