<?xml version="1.0" encoding="UTF-8"?><svg id="Layer_2" xmlns="http://www.w3.org/2000/svg" xmlns:xlink="http://www.w3.org/1999/xlink" viewBox="0 0 1114.87 302.55"><defs><style>.cls-1{fill:url(#linear-gradient-2);}.cls-2{fill:#fff;}.cls-3{fill:#ff1a6c;}.cls-4{fill:url(#linear-gradient);}</style><linearGradient id="linear-gradient" x1="370.9" y1="130.83" x2="1071.68" y2="130.83" gradientTransform="matrix(1, 0, 0, 1, 0, 0)" gradientUnits="userSpaceOnUse"><stop offset=".11" stop-color="#ff1a6c"/><stop offset=".93" stop-color="#0c1ebf"/></linearGradient><linearGradient id="linear-gradient-2" x1="371.4" y1="130.83" x2="1073.34" y2="130.83" gradientTransform="matrix(1, 0, 0, 1, 0, 0)" gradientUnits="userSpaceOnUse"><stop offset="0" stop-color="#ff1a6c"/><stop offset="1" stop-color="#0c1ebf"/></linearGradient></defs><g id="Layer_1-2"><g><rect class="cls-3" x="1087.31" y="70.97" width="27.56" height="4"/><rect class="cls-3" x="1087.31" y="114.17" width="27.56" height="4"/><rect class="cls-3" x="1087.31" y="135.77" width="27.56" height="4"/><rect class="cls-3" x="1087.31" y="178.97" width="27.56" height="4"/><path class="cls-3" d="M291.78,160H41.02l-24.97-24.97v-22.79l10.57-10.57H291.78l10.57,10.57v37.19l-10.57,10.57Z"/><rect class="cls-3" x="329.87" y="81.77" width="27.56" height="4"/><rect class="cls-3" x="329.87" y="135.77" width="27.56" height="4"/><rect class="cls-3" x="329.87" y="168.17" width="27.56" height="4"/><g><path class="cls-4" d="M389.73,38.92h665.27c9.8,0,17.75,7.95,17.75,17.75V205c0,9.8-7.95,17.75-17.75,17.75H389.73c-9.8,0-17.75-7.95-17.75-17.75V56.67c0-9.8,7.95-17.75,17.75-17.75Z"/><path class="cls-1" d="M1055.01,39.51c9.46,0,17.16,7.7,17.16,17.16V205c0,9.46-7.7,17.16-17.16,17.16H389.73c-9.46,0-17.16-7.7-17.16-17.16V56.67c0-9.46,7.7-17.16,17.16-17.16h665.27m0-1.17H389.73c-10.13,0-18.34,8.21-18.34,18.34V205c0,10.13,8.21,18.34,18.34,18.34h665.27c10.13,0,18.34-8.21,18.34-18.34V56.67c0-10.13-8.21-18.34-18.34-18.34h0Z"/></g><path class="cls-2" d="M1081.55,27.33l19,19,10.32,10.32V205.01l-29.32,29.32H363.19l-10.32-10.32-19-19V56.66l29.32-29.32h718.35m1.66-4H361.54l-31.67,31.67V206.67c12.37,12.37,19.3,19.3,31.67,31.67h721.67c12.37-12.37,19.3-19.3,31.67-31.67V55c-12.37-12.37-19.3-19.3-31.67-31.67h0Z"/><path class="cls-2" d="M746.8,58.33H451.81l-26.94-26.94V11.41l11.41-11.41h310.52l11.41,11.41V46.93l-11.41,11.41Z"/><rect class="cls-2" x="329.87" y="70.97" width="27.56" height="4"/><rect class="cls-2" x="329.87" y="92.57" width="27.56" height="4"/><rect class="cls-2" x="329.87" y="103.37" width="27.56" height="4"/><rect class="cls-2" x="329.87" y="114.17" width="27.56" height="4"/><rect class="cls-2" x="329.87" y="124.97" width="27.56" height="4"/><rect class="cls-2" x="329.87" y="146.57" width="27.56" height="4"/><rect class="cls-2" x="329.87" y="157.37" width="27.56" height="4"/><rect class="cls-2" x="329.87" y="178.97" width="27.56" height="4"/><rect class="cls-2" x="329.87" y="189.77" width="27.56" height="4"/><rect class="cls-2" x="1087.31" y="81.77" width="27.56" height="4"/><rect class="cls-2" x="1087.31" y="92.57" width="27.56" height="4"/><rect class="cls-2" x="1087.31" y="103.37" width="27.56" height="4"/><rect class="cls-2" x="1087.31" y="124.97" width="27.56" height="4"/><rect class="cls-2" x="1087.31" y="146.57" width="27.56" height="4"/><rect class="cls-2" x="1087.31" y="157.37" width="27.56" height="4"/><rect class="cls-2" x="1087.31" y="168.17" width="27.56" height="4"/><rect class="cls-2" x="1087.31" y="189.77" width="27.56" height="4"/><rect class="cls-2" x="393.73" y="238.33" width="1.5" height="10.74"/><rect class="cls-2" x="400.88" y="238.33" width="1.5" height="5.37"/><rect class="cls-2" x="408.04" y="238.33" width="1.5" height="5.37"/><rect class="cls-2" x="415.2" y="238.33" width="1.5" height="5.37"/><rect class="cls-2" x="422.35" y="238.33" width="1.5" height="10.74"/><rect class="cls-2" x="429.51" y="238.33" width="1.5" height="10.74"/><rect class="cls-2" x="436.66" y="238.33" width="1.5" height="5.37"/><rect class="cls-2" x="443.82" y="238.33" width="1.5" height="5.37"/><rect class="cls-2" x="450.97" y="238.33" width="1.5" height="5.37"/><rect class="cls-2" x="458.13" y="238.33" width="1.5" height="10.74"/><rect class="cls-2" x="465.29" y="238.33" width="1.5" height="10.74"/><rect class="cls-2" x="472.44" y="238.33" width="1.5" height="5.37"/><rect class="cls-2" x="479.6" y="238.33" width="1.5" height="10.74"/><rect class="cls-2" x="486.75" y="238.33" width="1.5" height="5.37"/><rect class="cls-2" x="493.91" y="238.33" width="1.5" height="5.37"/><rect class="cls-2" x="501.06" y="238.33" width="1.5" height="5.37"/><rect class="cls-2" x="508.22" y="238.33" width="1.5" height="10.74"/><rect class="cls-2" x="515.38" y="238.33" width="1.5" height="10.74"/><rect class="cls-2" x="522.53" y="238.33" width="1.5" height="5.37"/><rect class="cls-2" x="529.69" y="238.33" width="1.5" height="5.37"/><rect class="cls-2" x="536.84" y="238.33" width="1.5" height="5.37"/><rect class="cls-2" x="544" y="238.33" width="1.5" height="10.74"/><rect class="cls-2" x="551.15" y="238.33" width="1.5" height="10.74"/><rect class="cls-2" x="558.31" y="238.33" width="1.5" height="5.37"/><rect class="cls-2" x="905.94" y="238.33" width="1.5" height="10.74"/><rect class="cls-2" x="913.34" y="238.33" width="1.5" height="5.37"/><rect class="cls-2" x="920.75" y="238.33" width="1.5" height="5.37"/><rect class="cls-2" x="928.16" y="238.33" width="1.5" height="5.37"/><rect class="cls-2" x="935.56" y="238.33" width="1.5" height="10.74"/><rect class="cls-2" x="942.97" y="238.33" width="1.5" height="10.74"/><rect class="cls-2" x="950.38" y="238.33" width="1.5" height="5.37"/><rect class="cls-2" x="957.78" y="238.33" width="1.5" height="5.37"/><rect class="cls-2" x="965.19" y="238.33" width="1.5" height="5.37"/><rect class="cls-2" x="972.6" y="238.33" width="1.5" height="10.74"/><rect class="cls-2" x="980" y="238.33" width="1.5" height="10.74"/><rect class="cls-2" x="987.41" y="238.33" width="1.5" height="5.37"/><rect class="cls-2" x="994.82" y="238.33" width="1.5" height="10.74"/><rect class="cls-2" x="1002.22" y="238.33" width="1.5" height="5.37"/><rect class="cls-2" x="1009.63" y="238.33" width="1.5" height="5.37"/><rect class="cls-2" x="1017.04" y="238.33" width="1.5" height="5.37"/><rect class="cls-2" x="1024.44" y="238.33" width="1.5" height="10.74"/><rect class="cls-2" x="1031.85" y="238.33" width="1.5" height="10.74"/><rect class="cls-2" x="1039.26" y="238.33" width="1.5" height="5.37"/><rect class="cls-2" x="1046.66" y="238.33" width="1.5" height="5.37"/><rect class="cls-2" x="1054.07" y="238.33" width="1.5" height="5.37"/><rect class="cls-2" x="1061.48" y="238.33" width="1.5" height="10.74"/><rect class="cls-2" x="1068.88" y="238.33" width="1.5" height="10.74"/><rect class="cls-2" x="1076.29" y="238.33" width="1.5" height="5.37"/><rect class="cls-2" x="378.11" y="238.33" width="4" height="39.84"/><rect class="cls-2" x="389.78" y="271.56" width="4" height="34.66" transform="translate(-89.52 361.64) rotate(-45)"/><rect class="cls-2" x="402.39" y="298.55" width="198.4" height="4"/><rect class="cls-2" x="17.47" y="82.77" width="312.4" height="2"/><rect class="cls-2" x=".03" y="100.24" width="2" height="44.01"/><rect class="cls-2" x="-2.92" y="91.24" width="24.78" height="2" transform="translate(-62.45 33.71) rotate(-45)"/><rect class="cls-2" x="16.23" y="136.57" width="2" height="46.73" transform="translate(-108.04 59.03) rotate(-45)"/><rect class="cls-2" x="33.07" y="175.16" width="38.16" height="2"/></g></g></svg>