<?xml version="1.0" encoding="UTF-8"?><svg id="Layer_2" xmlns="http://www.w3.org/2000/svg" xmlns:xlink="http://www.w3.org/1999/xlink" viewBox="0 0 1024 600"><defs><style>.cls-1{clip-path:url(#clippath);}.cls-2,.cls-3{fill:none;}.cls-3{stroke:#e5e5e5;stroke-miterlimit:10;}</style><clipPath id="clippath"><rect class="cls-2" width="1024" height="600"/></clipPath></defs><g id="Layer_1-2"><g class="cls-1"><g><path class="cls-3" d="M-43.74-7.19S156.28,1.36,289.6,133.16c383.33,378.95,436.84-167.3,624.56,86.35,187.72,253.66,368.42,231.28,368.42,231.28"/><path class="cls-3" d="M-45.17,2.86s199.58,3.73,335.09,133.73c384.85,369.19,434.61-170.14,619.46,71.43s353.85,248.07,366.03,249.23"/><path class="cls-3" d="M-46.61,12.9s199.11-1.09,336.84,127.1c386.27,359.5,432.38-172.98,614.35,56.5,181.98,229.48,339.28,264.87,363.64,267.19"/><path class="cls-3" d="M-48.04,22.95s198.61-5.89,338.6,120.48c387.59,349.87,430.14-175.82,609.25,41.58,179.11,217.39,324.71,281.67,361.24,285.15"/><path class="cls-3" d="M-49.48,33s198.08-10.67,340.35,113.86c388.82,340.31,427.91-178.65,604.15,26.65,176.24,205.31,310.14,298.46,358.85,303.1"/><path class="cls-3" d="M-50.91,43.05s197.52-15.43,342.11,107.23c389.95,330.82,425.68-181.49,599.04,11.73,173.37,193.22,295.57,315.26,356.46,321.06"/><path class="cls-3" d="M-52.35,53.1s196.93-20.17,343.86,100.61c390.99,321.41,423.44-184.33,593.94-3.2,170.49,181.13,281,332.06,354.07,339.02"/><path class="cls-3" d="M-53.78,63.14s196.32-24.89,345.61,93.98c391.94,312.07,421.21-187.16,588.84-18.12s266.43,348.85,351.67,356.97"/><path class="cls-3" d="M-55.22,73.19s195.67-29.58,347.37,87.36C684.97,463.36,711.13-29.45,875.88,127.51c164.75,156.95,251.86,365.65,349.28,374.93"/><path class="cls-3" d="M-56.66,83.24s195-34.24,349.12,80.74C686.08,457.61,709.21-28.86,871.1,116.01s237.29,382.45,346.89,392.88"/><path class="cls-3" d="M-58.09,93.29s194.3-38.87,350.88,74.11C687.12,451.94,707.3-28.27,866.31,104.5c159.01,132.78,222.72,399.24,344.5,410.84"/><path class="cls-3" d="M-59.53,103.33s193.58-43.46,352.63,67.49C688.1,446.36,705.39-27.69,861.53,93c156.14,120.69,208.15,416.04,342.11,428.8"/><path class="cls-3" d="M-60.96,113.38s192.82-48.03,354.39,60.87C689.01,440.87,703.47-27.1,856.74,81.5c153.27,108.6,193.58,432.84,339.71,446.75"/><path class="cls-3" d="M-62.4,123.43s192.05-52.55,356.14,54.24C689.86,435.47,701.56-26.51,851.96,70c150.4,96.51,179,449.63,337.32,464.71"/><path class="cls-3" d="M-63.83,133.48s191.25-57.03,357.89,47.62C690.66,430.16,699.64-25.92,847.17,58.5s164.43,466.43,334.93,482.67"/><path class="cls-3" d="M-65.27,143.53s190.43-61.47,359.65,40.99C691.42,424.94,697.73-25.34,842.39,47c144.66,72.34,149.86,483.22,332.54,500.62"/><path class="cls-3" d="M-66.7,153.57s189.59-65.87,361.4,34.37C692.13,419.82,695.82-24.75,837.6,35.5c141.79,60.25,135.29,500.02,330.14,518.58"/><path class="cls-3" d="M-68.14,163.62s188.73-70.22,363.16,27.75C692.8,414.79,693.9-24.16,832.82,24s120.72,516.82,327.75,536.53"/><path class="cls-3" d="M-69.57,173.67s187.86-74.53,364.91,21.12C693.45,409.86,691.99-23.58,828.03,12.5c136.04,36.07,106.15,533.61,325.36,554.49"/><path class="cls-3" d="M-71.01,183.72s186.96-78.78,366.67,14.5C694.07,405.03,690.07-22.99,823.25,1c133.17,23.98,91.58,550.41,322.97,572.45"/><path class="cls-3" d="M-72.44,193.77s186.06-82.98,368.42,7.88C694.68,400.29,688.16-22.4,818.46-10.51c130.3,11.9,77.01,567.21,320.57,590.4"/><path class="cls-3" d="M-73.88,203.81s185.14-87.13,370.18,1.25C695.27,395.64,686.25-21.81,813.68-22.01s62.44,584,318.18,608.36"/><path class="cls-3" d="M-75.32,213.86s184.21-91.23,371.93-5.37C695.86,391.09,684.33-21.23,808.89-33.51s47.87,600.8,315.79,626.32"/></g><g><path class="cls-3" d="M1280.71,391.3s-191.77,57.46-360.92-23.36c-486.35-232.4-357.89,301.22-618.37,123.09C40.94,312.89-122.45,393.25-122.45,393.25"/><path class="cls-3" d="M1278.78,381.33s-189.78,61.88-360.41-16.53c-484.59-222.69-354.85,303.17-608.66,135.52C55.9,332.67-105.9,381.91-117.78,384.8"/><path class="cls-3" d="M1276.84,371.37s-187.76,66.28-359.89-9.7c-482.75-213.06-351.81,305.12-598.95,147.95C70.87,352.45-89.35,370.56-113.12,376.35"/><path class="cls-3" d="M1274.9,361.41s-185.71,70.65-359.38-2.86c-480.85-203.53-348.77,307.07-589.23,160.37C85.83,372.22-72.79,359.22-108.45,367.9"/><path class="cls-3" d="M1272.97,351.44s-183.65,74.99-358.87,3.97c-478.87-194.1-345.73,309.02-579.52,172.8C100.79,392-56.24,347.87-103.79,359.45"/><path class="cls-3" d="M1271.03,341.48s-181.56,79.31-358.35,10.8c-476.83-184.76-342.7,310.97-569.81,185.23C115.76,411.78-39.69,336.52-99.12,351"/><path class="cls-3" d="M1269.09,331.52s-179.45,83.59-357.84,17.63c-474.73-175.53-339.66,312.91-560.09,197.66C130.72,431.56-23.14,325.18-94.46,342.55"/><path class="cls-3" d="M1267.16,321.55s-177.32,87.85-357.33,24.47c-472.57-166.39-336.62,314.86-550.38,210.09C145.68,451.33-6.59,313.83-89.79,334.1"/><path class="cls-3" d="M1265.22,311.59s-175.18,92.07-356.82,31.3c-470.36-157.36-333.58,316.81-540.67,222.52C160.65,471.11,9.96,302.49-85.13,325.65"/><path class="cls-3" d="M1263.28,301.63s-173.01,96.25-356.3,38.13c-468.11-148.43-330.54,318.76-530.95,234.94C175.61,490.89,26.51,291.14-80.46,317.2"/><path class="cls-3" d="M1261.35,291.66s-170.83,100.4-355.79,44.97c-465.81-139.6-327.5,320.71-521.24,247.37C190.57,510.67,43.06,279.79-75.79,308.75"/><path class="cls-3" d="M1259.41,281.7s-168.64,104.5-355.28,51.8c-463.48-130.88-324.46,322.66-511.53,259.8C205.54,530.45,59.61,268.45-71.13,300.3"/><path class="cls-3" d="M1257.47,271.74s-166.44,108.56-354.76,58.63c-461.12-122.26-321.42,324.61-501.82,272.23C220.5,550.22,76.16,257.1-66.46,291.84"/><path class="cls-3" d="M1255.54,261.77s-164.22,112.58-354.25,65.46c-458.73-113.75-318.38,326.55-492.1,284.66C235.46,570,92.71,245.76-61.8,283.39"/><path class="cls-3" d="M1253.6,251.81s-162,116.56-353.74,72.3c-456.32-105.34-315.34,328.5-482.39,297.09C250.43,589.78,109.27,234.41-57.13,274.94"/><path class="cls-3" d="M1251.66,241.85s-159.77,120.49-353.22,79.13c-453.9-97.03-312.3,330.45-472.68,309.51C265.39,609.56,125.82,223.06-52.47,266.49"/><path class="cls-3" d="M1249.73,231.88s-157.53,124.37-352.71,85.96c-451.47-88.83-309.26,332.4-462.96,321.94-153.7-10.46-291.68-428.07-481.86-381.75"/><path class="cls-3" d="M1247.79,221.92s-155.3,128.2-352.2,92.8c-449.04-80.73-306.22,334.35-453.25,334.37-147.03,.02-283.42-448.72-485.48-399.5"/><path class="cls-3" d="M1245.85,211.96s-153.06,131.97-351.68,99.63c-446.61-72.73-303.19,336.3-443.54,346.8-140.35,10.5-275.16-469.36-489.1-417.25"/><path class="cls-3" d="M1243.92,201.99s-150.82,135.7-351.17,106.46c-444.19-64.82-300.15,338.24-433.83,359.23C325.24,688.67,192.02,177.68-33.81,232.69"/><path class="cls-3" d="M1241.98,192.03s-148.59,139.37-350.66,113.3c-441.78-57.02-297.11,340.19-424.11,371.66C340.2,708.44,208.57,166.34-29.14,224.24"/><path class="cls-3" d="M1240.04,182.07s-146.36,142.99-350.14,120.13c-439.4-49.3-294.07,342.14-414.4,384.08C355.17,728.22,225.12,154.99-24.48,215.79"/><path class="cls-3" d="M1238.11,172.1s-144.14,146.56-349.63,126.96c-437.04-41.68-291.03,344.09-404.69,396.51C370.13,748,241.67,143.64-19.81,207.34"/></g></g></g></svg>